<?xml version="1.0" standalone="no"?><!-- Generator: Gravit.io --><svg xmlns="http://www.w3.org/2000/svg" xmlns:xlink="http://www.w3.org/1999/xlink" style="isolation:isolate" viewBox="340 4 20 37" width="20" height="37"><g id="Group"><g id="ruby"><g id="ruby"><path d=" M 356.797 21.008 C 359.324 21.449 360.041 23.187 359.988 25.008 L 360 24.982 L 358.863 39.98 L 344.075 41 L 344.088 41 C 342.861 40.948 340.125 40.835 340 36.986 L 341.371 34.471 L 343.72 39.993 L 344.139 40.976 L 346.477 33.309 L 346.452 33.315 L 346.465 33.289 L 354.178 35.768 L 353.014 31.214 L 352.189 27.944 L 359.539 27.467 L 359.027 27.039 L 353.75 22.711 L 356.799 21 L 356.797 21.008 Z  M 340 36.944 L 340 36.966 L 340 36.942 L 340 36.944 Z  M 344.275 25.192 C 347.243 22.23 351.073 20.479 352.543 21.973 C 354.012 23.463 352.456 27.091 349.483 30.052 C 346.513 33.014 342.73 34.86 341.263 33.37 C 339.791 31.88 341.3 28.157 344.273 25.195 L 344.275 25.192 Z " fill="rgb(204,52,45)"/></g></g></g></svg>